# xmcd
#
# Track frame offsets: 
#        150
#        18300
#        33678
#        53595
#
# Disc length: 923 seconds
#
# Revision: 0
# Processed by: cddbd v1.5.2PL0 Copyright (c) Steve Scherf et al.
# Submitted via: ExactAudioCopy v0.95b4
#
DISCID=29039904
DTITLE=Anders "Rubbe" Rörby - Rubbe tolkar Hank
DYEAR=2007
DGENRE=Country
TTITLE0=Gråta är allt jag kan
TTITLE1=Man på rymmen
TTITLE2=Mina lyckliga dagar
TTITLE3=Blir inte skuldfri förrän jag dör
EXTD=
EXTT0=
EXTT1=
EXTT2=
EXTT3=
PLAYORDER=
